<svg width="311" height="213" viewBox="0 0 311 213" fill="none" xmlns="http://www.w3.org/2000/svg">
<path d="M154.977 174.49C197.383 174.49 231.936 140.079 231.936 97.8162C231.793 55.4102 197.383 21 154.977 21C112.429 21 78.0183 55.4102 78.0183 97.6734C78.0183 140.079 112.429 174.49 154.977 174.49Z" fill="#EF3C50" fill-opacity="0.04"/>
<g filter="url(#filter0_d_5976_345)">
<path d="M237.076 107.525C237.076 123.945 223.798 137.224 207.235 137.224C206.95 137.224 204.522 137.224 186.675 137.224C174.253 137.224 154.406 137.224 122.709 137.224H107.574C87.7274 137.652 71.8788 121.803 71.8788 102.671C71.8788 83.3954 87.8702 67.4039 108.002 68.4034C125.279 14.4322 204.38 21.9995 211.09 77.8269C225.939 79.6831 237.076 92.2478 237.076 107.525Z" fill="url(#paint0_linear_5976_345)"/>
</g>
<path d="M207.235 137.224C223.655 137.224 237.076 123.945 237.076 107.525C237.076 91.1055 223.655 77.8269 207.235 77.8269C190.815 77.8269 177.394 91.1055 177.394 107.525C177.394 123.945 190.815 137.224 207.235 137.224Z" fill="url(#paint1_linear_5976_345)"/>
<path d="M158.547 137.509C187.817 137.509 211.661 113.808 211.661 84.5376C211.661 55.2674 187.817 31.5658 158.547 31.5658C129.277 31.5658 105.432 55.2674 105.432 84.5376C105.432 113.808 129.134 137.509 158.547 137.509Z" fill="url(#paint2_linear_5976_345)"/>
<path d="M138.902 98.1287C141.15 98.1287 143.053 96.2263 143.053 93.978C143.053 91.7297 141.15 89.8273 138.902 89.8273C136.654 89.8273 134.751 91.7297 134.751 93.978C134.751 96.2263 136.654 98.1287 138.902 98.1287Z" fill="#989FB0"/>
<path d="M170.724 98.1287C172.972 98.1287 174.875 96.2263 174.875 93.978C174.875 91.7297 172.972 89.8273 170.724 89.8273C168.476 89.8273 166.573 91.7297 166.573 93.978C166.573 96.3992 168.476 98.1287 170.724 98.1287Z" fill="#989FB0"/>
<path d="M138.74 80.2459L129.609 85.1759L130.842 87.4585L139.972 82.5286L138.74 80.2459Z" fill="#989FB0"/>
<path d="M170.159 80.1801L168.927 82.463L178.059 87.3919L179.291 85.1091L170.159 80.1801Z" fill="#989FB0"/>
<path d="M154.813 107.814C157.487 107.814 159.655 106.187 159.655 104.182C159.655 102.176 157.487 100.55 154.813 100.55C152.139 100.55 149.97 102.176 149.97 104.182C149.97 106.187 152.139 107.814 154.813 107.814Z" fill="#989FB0"/>
<path d="M55.3943 41.4971C55.3943 41.4971 35.4356 46.5645 41.4836 50.6185C47.5317 54.4697 61.8456 61.1588 75.353 56.6994C88.8604 52.2401 75.353 45.9564 75.5546 45.9564C75.7562 45.9564 55.3943 41.4971 55.3943 41.4971Z" fill="#EF3C4F"/>
<path d="M31 39.8756C38.2577 42.1052 60.6357 38.4567 74.9495 29.1326C86.2393 43.1187 90.4729 46.7673 94.505 47.1727C88.2553 53.4563 67.4902 63.5912 55.7972 50.4158C42.0882 59.1319 31 39.8756 31 39.8756Z" fill="#FFECEF"/>
<path d="M216.714 90.5573C224.375 90.9627 245.14 81.6386 256.43 69.0713C270.945 79.8143 275.784 82.2466 280.017 81.6386C275.381 89.3411 261.268 106.165 241.31 107.381C226.794 98.8679 216.714 90.5573 216.714 90.5573Z" fill="#FFECEF"/>
<path d="M155.56 185.636C154.044 178.116 139.842 160.328 124.858 152.525C131.647 135.791 132.797 130.499 131.154 126.55C139.769 129.122 159.578 138.599 165.727 157.625C161.098 173.804 155.56 185.636 155.56 185.636Z" fill="#EF3C4F"/>
<path d="M254.893 146.524C259.985 146.524 264.112 142.396 264.112 137.305C264.112 132.213 259.985 128.086 254.893 128.086C249.802 128.086 245.674 132.213 245.674 137.305C245.674 142.396 249.802 146.524 254.893 146.524Z" fill="#EF3C50" fill-opacity="0.04"/>
<path d="M237.189 172.246C240.666 172.246 243.485 169.427 243.485 165.95C243.485 162.473 240.666 159.654 237.189 159.654C233.712 159.654 230.893 162.473 230.893 165.95C230.893 169.427 233.712 172.246 237.189 172.246Z" fill="#EF3C50" fill-opacity="0.04"/>
<path d="M61.2538 160.037C67.7113 160.037 72.9461 154.802 72.9461 148.345C72.9461 141.887 67.7113 136.653 61.2538 136.653C54.7963 136.653 49.5615 141.887 49.5615 148.345C49.5615 154.802 54.7963 160.037 61.2538 160.037Z" fill="#EF3C50" fill-opacity="0.04"/>
<defs>
<filter id="filter0_d_5976_345" x="40.4669" y="15.989" width="228.021" height="168.361" filterUnits="userSpaceOnUse" color-interpolation-filters="sRGB">
<feFlood flood-opacity="0" result="BackgroundImageFix"/>
<feColorMatrix in="SourceAlpha" type="matrix" values="0 0 0 0 0 0 0 0 0 0 0 0 0 0 0 0 0 0 127 0" result="hardAlpha"/>
<feOffset dy="15.7059"/>
<feGaussianBlur stdDeviation="15.7059"/>
<feColorMatrix type="matrix" values="0 0 0 0 0.397708 0 0 0 0 0.47749 0 0 0 0 0.575 0 0 0 0.27 0"/>
<feBlend mode="normal" in2="BackgroundImageFix" result="effect1_dropShadow_5976_345"/>
<feBlend mode="normal" in="SourceGraphic" in2="effect1_dropShadow_5976_345" result="shape"/>
</filter>
<linearGradient id="paint0_linear_5976_345" x1="154.478" y1="75.3071" x2="154.424" y2="138.37" gradientUnits="userSpaceOnUse">
<stop stop-color="white"/>
<stop offset="0.9964" stop-color="#ECF0F5"/>
</linearGradient>
<linearGradient id="paint1_linear_5976_345" x1="174.218" y1="71.4329" x2="200.672" y2="100.366" gradientUnits="userSpaceOnUse">
<stop stop-color="#EF3C50" stop-opacity="0.04"/>
<stop offset="0.9942" stop-color="white" stop-opacity="0"/>
</linearGradient>
<linearGradient id="paint2_linear_5976_345" x1="100.459" y1="60.2302" x2="142.152" y2="76.5463" gradientUnits="userSpaceOnUse">
<stop stop-color="#EF3C50" stop-opacity="0.04"/>
<stop offset="0.9942" stop-color="white" stop-opacity="0"/>
</linearGradient>
</defs>
</svg>
